<svg xmlns="http://www.w3.org/2000/svg" width="32" height="32" 
     viewBox="0 0 24 24" fill="#d7c0d0">
  <path d="M12 .5C5.73.5.5 5.73.5 12c0 5.08 3.29 9.38 7.86 10.91.58.11.79-.25.79-.56v-2.02c-3.2.7-3.87-1.54-3.87-1.54-.53-1.34-1.29-1.7-1.29-1.7-1.06-.72.08-.71.08-.71 1.17.08 1.78 1.2 1.78 1.2 1.04 1.78 2.73 1.27 3.4.97.11-.75.41-1.27.75-1.56-2.55-.29-5.23-1.28-5.23-5.7 0-1.26.45-2.29 1.19-3.1-.12-.29-.52-1.46.11-3.05 0 0 .97-.31 3.18 1.18a11.1 11.1 0 0 1 5.79 0c2.21-1.49 3.18-1.18 3.18-1.18.63 1.59.23 2.76.11 3.05.74.81 1.19 1.84 1.19 3.1 0 4.43-2.69 5.41-5.25 5.69.42.36.8 1.08.8 2.18v3.24c0 .31.21.67.8.56A10.52 10.52 0 0 0 23.5 12c0-6.27-5.23-11.5-11.5-11.5z"/>
</svg>
