<svg xmlns="http://www.w3.org/2000/svg" width="32" height="32" 
     viewBox="0 0 24 24" fill="none" stroke="#a8d8ea" stroke-width="2" 
     stroke-linecap="round" stroke-linejoin="round">
  <path d="M22 16.92v3a2 2 0 0 1-2.18 2 
           19.86 19.86 0 0 1-8.63-3.07 
           19.5 19.5 0 0 1-6-6 
           19.86 19.86 0 0 1-3.07-8.63 
           A2 2 0 0 1 4.11 2h3a2 2 0 0 1 2 1.72 
           c.2 1.52.72 2.98 1.52 4.28a2 2 0 0 1-.45 2.45l-1.27 1.27a16 16 0 0 0 6 6l1.27-1.27a2 2 0 0 1 2.45-.45 
           c1.3.8 2.76 1.32 4.28 1.52a2 2 0 0 1 1.72 2z"/>
</svg>
